<svg xmlns="http://www.w3.org/2000/svg" width="208mm" height="296mm" x="0" y="0">
    <g id="sheet">
		<g id="horizontal">
			<line x1="0mm" y1="0mm" x2="210mm" y2="0mm"/>
<line x1="0mm" y1="4mm" x2="210mm" y2="4mm"/>
<line x1="0mm" y1="8mm" x2="210mm" y2="8mm"/>
<line x1="0mm" y1="12mm" x2="210mm" y2="12mm"/>
<line x1="0mm" y1="16mm" x2="210mm" y2="16mm"/>
<line x1="0mm" y1="20mm" x2="210mm" y2="20mm"/>
<line x1="0mm" y1="24mm" x2="210mm" y2="24mm"/>
<line x1="0mm" y1="28mm" x2="210mm" y2="28mm"/>
<line x1="0mm" y1="32mm" x2="210mm" y2="32mm"/>
<line x1="0mm" y1="36mm" x2="210mm" y2="36mm"/>
<line x1="0mm" y1="40mm" x2="210mm" y2="40mm"/>
<line x1="0mm" y1="44mm" x2="210mm" y2="44mm"/>
<line x1="0mm" y1="48mm" x2="210mm" y2="48mm"/>
<line x1="0mm" y1="52mm" x2="210mm" y2="52mm"/>
<line x1="0mm" y1="56mm" x2="210mm" y2="56mm"/>
<line x1="0mm" y1="60mm" x2="210mm" y2="60mm"/>
<line x1="0mm" y1="64mm" x2="210mm" y2="64mm"/>
<line x1="0mm" y1="68mm" x2="210mm" y2="68mm"/>
<line x1="0mm" y1="72mm" x2="210mm" y2="72mm"/>
<line x1="0mm" y1="76mm" x2="210mm" y2="76mm"/>
<line x1="0mm" y1="80mm" x2="210mm" y2="80mm"/>
<line x1="0mm" y1="84mm" x2="210mm" y2="84mm"/>
<line x1="0mm" y1="88mm" x2="210mm" y2="88mm"/>
<line x1="0mm" y1="92mm" x2="210mm" y2="92mm"/>
<line x1="0mm" y1="96mm" x2="210mm" y2="96mm"/>
<line x1="0mm" y1="100mm" x2="210mm" y2="100mm"/>
<line x1="0mm" y1="104mm" x2="210mm" y2="104mm"/>
<line x1="0mm" y1="108mm" x2="210mm" y2="108mm"/>
<line x1="0mm" y1="112mm" x2="210mm" y2="112mm"/>
<line x1="0mm" y1="116mm" x2="210mm" y2="116mm"/>
<line x1="0mm" y1="120mm" x2="210mm" y2="120mm"/>
<line x1="0mm" y1="124mm" x2="210mm" y2="124mm"/>
<line x1="0mm" y1="128mm" x2="210mm" y2="128mm"/>
<line x1="0mm" y1="132mm" x2="210mm" y2="132mm"/>
<line x1="0mm" y1="136mm" x2="210mm" y2="136mm"/>
<line x1="0mm" y1="140mm" x2="210mm" y2="140mm"/>
<line x1="0mm" y1="144mm" x2="210mm" y2="144mm"/>
<line x1="0mm" y1="148mm" x2="210mm" y2="148mm"/>
<line x1="0mm" y1="152mm" x2="210mm" y2="152mm"/>
<line x1="0mm" y1="156mm" x2="210mm" y2="156mm"/>
<line x1="0mm" y1="160mm" x2="210mm" y2="160mm"/>
<line x1="0mm" y1="164mm" x2="210mm" y2="164mm"/>
<line x1="0mm" y1="168mm" x2="210mm" y2="168mm"/>
<line x1="0mm" y1="172mm" x2="210mm" y2="172mm"/>
<line x1="0mm" y1="176mm" x2="210mm" y2="176mm"/>
<line x1="0mm" y1="180mm" x2="210mm" y2="180mm"/>
<line x1="0mm" y1="184mm" x2="210mm" y2="184mm"/>
<line x1="0mm" y1="188mm" x2="210mm" y2="188mm"/>
<line x1="0mm" y1="192mm" x2="210mm" y2="192mm"/>
<line x1="0mm" y1="196mm" x2="210mm" y2="196mm"/>
<line x1="0mm" y1="200mm" x2="210mm" y2="200mm"/>
<line x1="0mm" y1="204mm" x2="210mm" y2="204mm"/>
<line x1="0mm" y1="208mm" x2="210mm" y2="208mm"/>
<line x1="0mm" y1="212mm" x2="210mm" y2="212mm"/>
<line x1="0mm" y1="216mm" x2="210mm" y2="216mm"/>
<line x1="0mm" y1="220mm" x2="210mm" y2="220mm"/>
<line x1="0mm" y1="224mm" x2="210mm" y2="224mm"/>
<line x1="0mm" y1="228mm" x2="210mm" y2="228mm"/>
<line x1="0mm" y1="232mm" x2="210mm" y2="232mm"/>
<line x1="0mm" y1="236mm" x2="210mm" y2="236mm"/>
<line x1="0mm" y1="240mm" x2="210mm" y2="240mm"/>
<line x1="0mm" y1="244mm" x2="210mm" y2="244mm"/>
<line x1="0mm" y1="248mm" x2="210mm" y2="248mm"/>
<line x1="0mm" y1="252mm" x2="210mm" y2="252mm"/>
<line x1="0mm" y1="256mm" x2="210mm" y2="256mm"/>
<line x1="0mm" y1="260mm" x2="210mm" y2="260mm"/>
<line x1="0mm" y1="264mm" x2="210mm" y2="264mm"/>
<line x1="0mm" y1="268mm" x2="210mm" y2="268mm"/>
<line x1="0mm" y1="272mm" x2="210mm" y2="272mm"/>
<line x1="0mm" y1="276mm" x2="210mm" y2="276mm"/>
<line x1="0mm" y1="280mm" x2="210mm" y2="280mm"/>
<line x1="0mm" y1="284mm" x2="210mm" y2="284mm"/>
<line x1="0mm" y1="288mm" x2="210mm" y2="288mm"/>
<line x1="0mm" y1="292mm" x2="210mm" y2="292mm"/>
<line x1="0mm" y1="296mm" x2="210mm" y2="296mm"/>
		</g>
		<g id="vertical">
			<line x1="0mm" y1="0mm" x2="0mm" y2="297mm"/>
<line x1="4mm" y1="0mm" x2="4mm" y2="297mm"/>
<line x1="8mm" y1="0mm" x2="8mm" y2="297mm"/>
<line x1="12mm" y1="0mm" x2="12mm" y2="297mm"/>
<line x1="16mm" y1="0mm" x2="16mm" y2="297mm"/>
<line x1="20mm" y1="0mm" x2="20mm" y2="297mm"/>
<line x1="24mm" y1="0mm" x2="24mm" y2="297mm"/>
<line x1="28mm" y1="0mm" x2="28mm" y2="297mm"/>
<line x1="32mm" y1="0mm" x2="32mm" y2="297mm"/>
<line x1="36mm" y1="0mm" x2="36mm" y2="297mm"/>
<line x1="40mm" y1="0mm" x2="40mm" y2="297mm"/>
<line x1="44mm" y1="0mm" x2="44mm" y2="297mm"/>
<line x1="48mm" y1="0mm" x2="48mm" y2="297mm"/>
<line x1="52mm" y1="0mm" x2="52mm" y2="297mm"/>
<line x1="56mm" y1="0mm" x2="56mm" y2="297mm"/>
<line x1="60mm" y1="0mm" x2="60mm" y2="297mm"/>
<line x1="64mm" y1="0mm" x2="64mm" y2="297mm"/>
<line x1="68mm" y1="0mm" x2="68mm" y2="297mm"/>
<line x1="72mm" y1="0mm" x2="72mm" y2="297mm"/>
<line x1="76mm" y1="0mm" x2="76mm" y2="297mm"/>
<line x1="80mm" y1="0mm" x2="80mm" y2="297mm"/>
<line x1="84mm" y1="0mm" x2="84mm" y2="297mm"/>
<line x1="88mm" y1="0mm" x2="88mm" y2="297mm"/>
<line x1="92mm" y1="0mm" x2="92mm" y2="297mm"/>
<line x1="96mm" y1="0mm" x2="96mm" y2="297mm"/>
<line x1="100mm" y1="0mm" x2="100mm" y2="297mm"/>
<line x1="104mm" y1="0mm" x2="104mm" y2="297mm"/>
<line x1="108mm" y1="0mm" x2="108mm" y2="297mm"/>
<line x1="112mm" y1="0mm" x2="112mm" y2="297mm"/>
<line x1="116mm" y1="0mm" x2="116mm" y2="297mm"/>
<line x1="120mm" y1="0mm" x2="120mm" y2="297mm"/>
<line x1="124mm" y1="0mm" x2="124mm" y2="297mm"/>
<line x1="128mm" y1="0mm" x2="128mm" y2="297mm"/>
<line x1="132mm" y1="0mm" x2="132mm" y2="297mm"/>
<line x1="136mm" y1="0mm" x2="136mm" y2="297mm"/>
<line x1="140mm" y1="0mm" x2="140mm" y2="297mm"/>
<line x1="144mm" y1="0mm" x2="144mm" y2="297mm"/>
<line x1="148mm" y1="0mm" x2="148mm" y2="297mm"/>
<line x1="152mm" y1="0mm" x2="152mm" y2="297mm"/>
<line x1="156mm" y1="0mm" x2="156mm" y2="297mm"/>
<line x1="160mm" y1="0mm" x2="160mm" y2="297mm"/>
<line x1="164mm" y1="0mm" x2="164mm" y2="297mm"/>
<line x1="168mm" y1="0mm" x2="168mm" y2="297mm"/>
<line x1="172mm" y1="0mm" x2="172mm" y2="297mm"/>
<line x1="176mm" y1="0mm" x2="176mm" y2="297mm"/>
<line x1="180mm" y1="0mm" x2="180mm" y2="297mm"/>
<line x1="184mm" y1="0mm" x2="184mm" y2="297mm"/>
<line x1="188mm" y1="0mm" x2="188mm" y2="297mm"/>
<line x1="192mm" y1="0mm" x2="192mm" y2="297mm"/>
<line x1="196mm" y1="0mm" x2="196mm" y2="297mm"/>
<line x1="200mm" y1="0mm" x2="200mm" y2="297mm"/>
<line x1="204mm" y1="0mm" x2="204mm" y2="297mm"/>
<line x1="208mm" y1="0mm" x2="208mm" y2="297mm"/>
		</g>
    </g>
    
    <defs>
        <style>
			:root {
				--square-size: 4mm;
				--sheet-color: #fff;
				--line-width: 0.2mm;
				--line-color: #d0d0d0;
			}
			
			svg { background: var(--sheet-color); }
            line {
				stroke: var(--line-color);
				stroke-width: var(--line-width);
			}
        </style>
    </defs>
</svg>